<svg width="28" height="28" viewBox="0 0 28 28" fill="none" xmlns="http://www.w3.org/2000/svg">
<path d="M23.333 14V8.16666H25.6663V15.1667H23.333M23.333 19.8333H25.6663V17.5H23.333M11.6663 15.1667C14.7813 15.1667 20.9997 16.73 20.9997 19.8333V23.3333H2.33301V19.8333C2.33301 16.73 8.55134 15.1667 11.6663 15.1667ZM11.6663 4.66666C12.904 4.66666 14.091 5.15832 14.9662 6.03349C15.8413 6.90866 16.333 8.09565 16.333 9.33332C16.333 10.571 15.8413 11.758 14.9662 12.6332C14.091 13.5083 12.904 14 11.6663 14C10.4287 14 9.24168 13.5083 8.36651 12.6332C7.49134 11.758 6.99967 10.571 6.99967 9.33332C6.99967 8.09565 7.49134 6.90866 8.36651 6.03349C9.24168 5.15832 10.4287 4.66666 11.6663 4.66666ZM11.6663 17.3833C8.20134 17.3833 4.54967 19.0867 4.54967 19.8333V21.1167H18.783V19.8333C18.783 19.0867 15.1313 17.3833 11.6663 17.3833ZM11.6663 6.88332C11.0166 6.88332 10.3934 7.14145 9.93393 7.60091C9.47447 8.06038 9.21634 8.68354 9.21634 9.33332C9.21634 9.9831 9.47447 10.6063 9.93393 11.0657C10.3934 11.5252 11.0166 11.7833 11.6663 11.7833C12.3161 11.7833 12.9393 11.5252 13.3988 11.0657C13.8582 10.6063 14.1163 9.9831 14.1163 9.33332C14.1163 8.68354 13.8582 8.06038 13.3988 7.60091C12.9393 7.14145 12.3161 6.88332 11.6663 6.88332Z" fill="black"/>
</svg>
