<svg width="56" height="56" viewBox="0 0 56 56" fill="none" xmlns="http://www.w3.org/2000/svg">
<g filter="url(#filter0_d_1_826)">
<circle cx="28" cy="24" r="24" fill="#E97171"/>
<path d="M16.968 23.44V24.976H10.392V23.44H16.968ZM26.8394 19.904H21.4794V23.088C21.7034 22.7893 22.034 22.5387 22.4714 22.336C22.9194 22.1333 23.394 22.032 23.8954 22.032C24.7914 22.032 25.5167 22.224 26.0714 22.608C26.6367 22.992 27.0367 23.4773 27.2714 24.064C27.5167 24.6507 27.6394 25.2693 27.6394 25.92C27.6394 26.7093 27.4847 27.4133 27.1754 28.032C26.8767 28.64 26.4234 29.12 25.8154 29.472C25.218 29.824 24.482 30 23.6074 30C22.4447 30 21.5114 29.712 20.8074 29.136C20.1034 28.56 19.682 27.7973 19.5434 26.848H21.3194C21.4367 27.3493 21.698 27.7493 22.1034 28.048C22.5087 28.336 23.0154 28.48 23.6234 28.48C24.3807 28.48 24.946 28.2507 25.3194 27.792C25.7034 27.3333 25.8954 26.7253 25.8954 25.968C25.8954 25.2 25.7034 24.6133 25.3194 24.208C24.9354 23.792 24.37 23.584 23.6234 23.584C23.1007 23.584 22.658 23.7173 22.2954 23.984C21.9434 24.24 21.6874 24.592 21.5274 25.04H19.7994V18.304H26.8394V19.904ZM29.5381 24.016C29.5381 22.1707 29.8475 20.7307 30.4661 19.696C31.0955 18.6507 32.1728 18.128 33.6981 18.128C35.2235 18.128 36.2955 18.6507 36.9141 19.696C37.5435 20.7307 37.8581 22.1707 37.8581 24.016C37.8581 25.8827 37.5435 27.344 36.9141 28.4C36.2955 29.4453 35.2235 29.968 33.6981 29.968C32.1728 29.968 31.0955 29.4453 30.4661 28.4C29.8475 27.344 29.5381 25.8827 29.5381 24.016ZM36.0661 24.016C36.0661 23.152 36.0075 22.4213 35.8901 21.824C35.7835 21.2267 35.5595 20.7413 35.2181 20.368C34.8768 19.984 34.3701 19.792 33.6981 19.792C33.0261 19.792 32.5195 19.984 32.1781 20.368C31.8368 20.7413 31.6075 21.2267 31.4901 21.824C31.3835 22.4213 31.3301 23.152 31.3301 24.016C31.3301 24.912 31.3835 25.664 31.4901 26.272C31.5968 26.88 31.8208 27.3707 32.1621 27.744C32.5141 28.1173 33.0261 28.304 33.6981 28.304C34.3701 28.304 34.8768 28.1173 35.2181 27.744C35.5701 27.3707 35.7995 26.88 35.9061 26.272C36.0128 25.664 36.0661 24.912 36.0661 24.016ZM39.5001 21.152C39.5001 20.3733 39.7241 19.7653 40.1721 19.328C40.6308 18.88 41.2175 18.656 41.9321 18.656C42.6468 18.656 43.2281 18.88 43.6761 19.328C44.1348 19.7653 44.3641 20.3733 44.3641 21.152C44.3641 21.9307 44.1348 22.544 43.6761 22.992C43.2281 23.44 42.6468 23.664 41.9321 23.664C41.2175 23.664 40.6308 23.44 40.1721 22.992C39.7241 22.544 39.5001 21.9307 39.5001 21.152ZM49.2601 18.864L42.8761 30H41.0841L47.4681 18.864H49.2601ZM41.9321 19.76C41.2601 19.76 40.9241 20.224 40.9241 21.152C40.9241 22.0907 41.2601 22.56 41.9321 22.56C42.2521 22.56 42.4975 22.448 42.6681 22.224C42.8495 21.9893 42.9401 21.632 42.9401 21.152C42.9401 20.224 42.6041 19.76 41.9321 19.76ZM46.0121 27.696C46.0121 26.9173 46.2361 26.3093 46.6841 25.872C47.1428 25.424 47.7295 25.2 48.4441 25.2C49.1481 25.2 49.7241 25.424 50.1721 25.872C50.6308 26.3093 50.8601 26.9173 50.8601 27.696C50.8601 28.4747 50.6308 29.088 50.1721 29.536C49.7241 29.984 49.1481 30.208 48.4441 30.208C47.7295 30.208 47.1428 29.984 46.6841 29.536C46.2361 29.088 46.0121 28.4747 46.0121 27.696ZM48.4281 26.304C47.7561 26.304 47.4201 26.768 47.4201 27.696C47.4201 28.624 47.7561 29.088 48.4281 29.088C49.1001 29.088 49.4361 28.624 49.4361 27.696C49.4361 26.768 49.1001 26.304 48.4281 26.304Z" fill="white"/>
</g>
<defs>
<filter id="filter0_d_1_826" x="0" y="0" width="56" height="56" filterUnits="userSpaceOnUse" color-interpolation-filters="sRGB">
<feFlood flood-opacity="0" result="BackgroundImageFix"/>
<feColorMatrix in="SourceAlpha" type="matrix" values="0 0 0 0 0 0 0 0 0 0 0 0 0 0 0 0 0 0 127 0" result="hardAlpha"/>
<feOffset dy="4"/>
<feGaussianBlur stdDeviation="2"/>
<feComposite in2="hardAlpha" operator="out"/>
<feColorMatrix type="matrix" values="0 0 0 0 0 0 0 0 0 0 0 0 0 0 0 0 0 0 0.25 0"/>
<feBlend mode="normal" in2="BackgroundImageFix" result="effect1_dropShadow_1_826"/>
<feBlend mode="normal" in="SourceGraphic" in2="effect1_dropShadow_1_826" result="shape"/>
</filter>
</defs>
</svg>
