<svg width="56" height="56" viewBox="0 0 56 56" fill="none" xmlns="http://www.w3.org/2000/svg">
<g filter="url(#filter0_d_1_657)">
<circle cx="28" cy="24" r="24" fill="#E97171"/>
</g>
<g filter="url(#filter1_d_1_657)">
<path d="M16.968 23.44V24.976H10.392V23.44H16.968ZM19.2874 21.216C19.3514 20.224 19.73 19.4507 20.4234 18.896C21.1274 18.3413 22.0234 18.064 23.1114 18.064C23.858 18.064 24.5034 18.1973 25.0474 18.464C25.5914 18.7307 26.002 19.0933 26.2794 19.552C26.5567 20.0107 26.6954 20.528 26.6954 21.104C26.6954 21.7653 26.5194 22.3307 26.1674 22.8C25.8154 23.2693 25.394 23.584 24.9034 23.744V23.808C25.5327 24 26.0234 24.352 26.3754 24.864C26.7274 25.3653 26.9034 26.0107 26.9034 26.8C26.9034 27.4293 26.7594 27.9893 26.4714 28.48C26.1834 28.9707 25.7567 29.36 25.1914 29.648C24.626 29.9253 23.9487 30.064 23.1594 30.064C22.0074 30.064 21.058 29.7707 20.3114 29.184C19.5754 28.5867 19.1807 27.7333 19.1274 26.624H20.8874C20.93 27.1893 21.1487 27.6533 21.5434 28.016C21.938 28.368 22.4714 28.544 23.1434 28.544C23.794 28.544 24.2954 28.368 24.6474 28.016C24.9994 27.6533 25.1754 27.1893 25.1754 26.624C25.1754 25.8773 24.9354 25.3493 24.4554 25.04C23.986 24.72 23.2607 24.56 22.2794 24.56H21.8634V23.056H22.2954C23.1594 23.0453 23.8154 22.9013 24.2634 22.624C24.722 22.3467 24.9514 21.9093 24.9514 21.312C24.9514 20.8 24.786 20.3947 24.4554 20.096C24.1247 19.7867 23.6554 19.632 23.0474 19.632C22.45 19.632 21.986 19.7867 21.6554 20.096C21.3247 20.3947 21.1274 20.768 21.0634 21.216H19.2874ZM28.8194 24.016C28.8194 22.1707 29.1287 20.7307 29.7474 19.696C30.3767 18.6507 31.454 18.128 32.9794 18.128C34.5047 18.128 35.5767 18.6507 36.1954 19.696C36.8247 20.7307 37.1394 22.1707 37.1394 24.016C37.1394 25.8827 36.8247 27.344 36.1954 28.4C35.5767 29.4453 34.5047 29.968 32.9794 29.968C31.454 29.968 30.3767 29.4453 29.7474 28.4C29.1287 27.344 28.8194 25.8827 28.8194 24.016ZM35.3474 24.016C35.3474 23.152 35.2887 22.4213 35.1714 21.824C35.0647 21.2267 34.8407 20.7413 34.4994 20.368C34.158 19.984 33.6514 19.792 32.9794 19.792C32.3074 19.792 31.8007 19.984 31.4594 20.368C31.118 20.7413 30.8887 21.2267 30.7714 21.824C30.6647 22.4213 30.6114 23.152 30.6114 24.016C30.6114 24.912 30.6647 25.664 30.7714 26.272C30.878 26.88 31.102 27.3707 31.4434 27.744C31.7954 28.1173 32.3074 28.304 32.9794 28.304C33.6514 28.304 34.158 28.1173 34.4994 27.744C34.8514 27.3707 35.0807 26.88 35.1874 26.272C35.294 25.664 35.3474 24.912 35.3474 24.016ZM38.7814 21.152C38.7814 20.3733 39.0054 19.7653 39.4534 19.328C39.912 18.88 40.4987 18.656 41.2134 18.656C41.928 18.656 42.5094 18.88 42.9574 19.328C43.416 19.7653 43.6454 20.3733 43.6454 21.152C43.6454 21.9307 43.416 22.544 42.9574 22.992C42.5094 23.44 41.928 23.664 41.2134 23.664C40.4987 23.664 39.912 23.44 39.4534 22.992C39.0054 22.544 38.7814 21.9307 38.7814 21.152ZM48.5414 18.864L42.1574 30H40.3654L46.7494 18.864H48.5414ZM41.2134 19.76C40.5414 19.76 40.2054 20.224 40.2054 21.152C40.2054 22.0907 40.5414 22.56 41.2134 22.56C41.5334 22.56 41.7787 22.448 41.9494 22.224C42.1307 21.9893 42.2214 21.632 42.2214 21.152C42.2214 20.224 41.8854 19.76 41.2134 19.76ZM45.2934 27.696C45.2934 26.9173 45.5174 26.3093 45.9654 25.872C46.424 25.424 47.0107 25.2 47.7254 25.2C48.4294 25.2 49.0054 25.424 49.4534 25.872C49.912 26.3093 50.1414 26.9173 50.1414 27.696C50.1414 28.4747 49.912 29.088 49.4534 29.536C49.0054 29.984 48.4294 30.208 47.7254 30.208C47.0107 30.208 46.424 29.984 45.9654 29.536C45.5174 29.088 45.2934 28.4747 45.2934 27.696ZM47.7094 26.304C47.0374 26.304 46.7014 26.768 46.7014 27.696C46.7014 28.624 47.0374 29.088 47.7094 29.088C48.3814 29.088 48.7174 28.624 48.7174 27.696C48.7174 26.768 48.3814 26.304 47.7094 26.304Z" fill="white"/>
</g>
<defs>
<filter id="filter0_d_1_657" x="0" y="0" width="56" height="56" filterUnits="userSpaceOnUse" color-interpolation-filters="sRGB">
<feFlood flood-opacity="0" result="BackgroundImageFix"/>
<feColorMatrix in="SourceAlpha" type="matrix" values="0 0 0 0 0 0 0 0 0 0 0 0 0 0 0 0 0 0 127 0" result="hardAlpha"/>
<feOffset dy="4"/>
<feGaussianBlur stdDeviation="2"/>
<feComposite in2="hardAlpha" operator="out"/>
<feColorMatrix type="matrix" values="0 0 0 0 0 0 0 0 0 0 0 0 0 0 0 0 0 0 0.25 0"/>
<feBlend mode="normal" in2="BackgroundImageFix" result="effect1_dropShadow_1_657"/>
<feBlend mode="normal" in="SourceGraphic" in2="effect1_dropShadow_1_657" result="shape"/>
</filter>
<filter id="filter1_d_1_657" x="6.392" y="18.064" width="47.7494" height="20.144" filterUnits="userSpaceOnUse" color-interpolation-filters="sRGB">
<feFlood flood-opacity="0" result="BackgroundImageFix"/>
<feColorMatrix in="SourceAlpha" type="matrix" values="0 0 0 0 0 0 0 0 0 0 0 0 0 0 0 0 0 0 127 0" result="hardAlpha"/>
<feOffset dy="4"/>
<feGaussianBlur stdDeviation="2"/>
<feComposite in2="hardAlpha" operator="out"/>
<feColorMatrix type="matrix" values="0 0 0 0 0 0 0 0 0 0 0 0 0 0 0 0 0 0 0.25 0"/>
<feBlend mode="normal" in2="BackgroundImageFix" result="effect1_dropShadow_1_657"/>
<feBlend mode="normal" in="SourceGraphic" in2="effect1_dropShadow_1_657" result="shape"/>
</filter>
</defs>
</svg>
