<svg width="56" height="56" viewBox="0 0 56 56" fill="none" xmlns="http://www.w3.org/2000/svg">
<g filter="url(#filter0_d_1_156)">
<circle cx="28" cy="24" r="24" fill="#2EC1AC"/>
<path d="M22.336 30H20.512L15.024 21.696V30H13.2V18.864H15.024L20.512 27.152V18.864H22.336V30ZM32.8113 25.376C32.8113 25.7067 32.7899 26.0053 32.7473 26.272H26.0113C26.0646 26.976 26.3259 27.5413 26.7953 27.968C27.2646 28.3947 27.8406 28.608 28.5233 28.608C29.5046 28.608 30.1979 28.1973 30.6033 27.376H32.5712C32.3046 28.1867 31.8193 28.8533 31.1153 29.376C30.4219 29.888 29.5579 30.144 28.5233 30.144C27.6806 30.144 26.9233 29.9573 26.2513 29.584C25.5899 29.2 25.0673 28.6667 24.6833 27.984C24.3099 27.2907 24.1233 26.4907 24.1233 25.584C24.1233 24.6773 24.3046 23.8827 24.6673 23.2C25.0406 22.5067 25.5579 21.9733 26.2193 21.6C26.8913 21.2267 27.6593 21.04 28.5233 21.04C29.3553 21.04 30.0966 21.2213 30.7473 21.584C31.3979 21.9467 31.9046 22.4587 32.2673 23.12C32.6299 23.7707 32.8113 24.5227 32.8113 25.376ZM30.9073 24.8C30.8966 24.128 30.6566 23.5893 30.1873 23.184C29.7179 22.7787 29.1366 22.576 28.4433 22.576C27.8139 22.576 27.2753 22.7787 26.8273 23.184C26.3793 23.5787 26.1126 24.1173 26.0273 24.8H30.9073ZM46.4463 21.184L43.7103 30H41.7903L40.0143 23.488L38.2383 30H36.3183L33.5663 21.184H35.4223L37.2623 28.272L39.1343 21.184H41.0383L42.8303 28.24L44.6543 21.184H46.4463Z" fill="white"/>
</g>
<defs>
<filter id="filter0_d_1_156" x="0" y="0" width="56" height="56" filterUnits="userSpaceOnUse" color-interpolation-filters="sRGB">
<feFlood flood-opacity="0" result="BackgroundImageFix"/>
<feColorMatrix in="SourceAlpha" type="matrix" values="0 0 0 0 0 0 0 0 0 0 0 0 0 0 0 0 0 0 127 0" result="hardAlpha"/>
<feOffset dy="4"/>
<feGaussianBlur stdDeviation="2"/>
<feComposite in2="hardAlpha" operator="out"/>
<feColorMatrix type="matrix" values="0 0 0 0 0 0 0 0 0 0 0 0 0 0 0 0 0 0 0.25 0"/>
<feBlend mode="normal" in2="BackgroundImageFix" result="effect1_dropShadow_1_156"/>
<feBlend mode="normal" in="SourceGraphic" in2="effect1_dropShadow_1_156" result="shape"/>
</filter>
</defs>
</svg>
